<?xml version="1.0" encoding="UTF-8"?>
<svg width="16px" height="16px" viewBox="0 0 16 16" version="1.1" xmlns="http://www.w3.org/2000/svg" xmlns:xlink="http://www.w3.org/1999/xlink">
    <!-- Generator: Sketch 59.1 (86144) - https://sketch.com -->
    <title>iconSaraji</title>
    <desc>Created with Sketch.</desc>
    <g id="iconSaraji" stroke="none" stroke-width="1" fill="none" fill-rule="evenodd">
        <path d="M9.70380376,9 C9.70380376,9 10.7801588,12.1253449 8.82918844,15.5770309 C8.82918844,15.5770309 7.768825,17.5071859 7,13.121104 C7,13.121104 9.2511196,11.4280345 9.70380376,9 Z M8,10 C8,10 6.70895251,13.0930741 2.87055874,13.9762079 C2.87189522,13.9748038 0.74821566,14.4942943 3.12983742,10.7511551 C3.12983742,10.7511551 6.00729627,11.3619074 8,10 Z M10,8 C10,8 13.0930741,9.29097611 13.9762079,13.1291577 C13.9748038,13.1291577 14.4942943,15.2513834 10.7511551,12.8698933 C10.7511551,12.8698933 11.3619074,9.99259357 10,8 Z M2.878896,7 C2.878896,7 4.57196546,9.2511196 7,9.70380376 L6.95531271,9.71812764 C6.5623169,9.83925733 3.63383983,10.6440445 0.422969053,8.82918844 C0.422969053,8.82918844 -1.50718592,7.768825 2.878896,7 Z M15.5770309,7.17081156 C15.5770309,7.17204168 17.5071859,8.231175 13.121104,9 C13.121104,9 11.4280345,6.7488804 9,6.29619624 C9,6.29619624 12.1253449,5.21984124 15.5770309,7.17081156 Z M5.24884491,3.13010666 C5.24884491,3.13010666 4.63809264,6.00740643 6,8 C6,8 2.90692587,6.70902389 2.02379213,2.87084231 C2.02519616,2.87084231 1.50570572,0.748616565 5.24884491,3.13010666 Z M9,2.878896 C9,2.878896 6.7488804,4.57196546 6.29619624,7 L6.28187236,6.95531271 C6.16074267,6.5623169 5.35595545,3.63383983 7.17081156,0.422969053 C7.17204168,0.422969053 8.231175,-1.50718592 9,2.878896 Z M12.8698933,5.24884491 C12.8698933,5.24884491 9.99392998,4.63809264 8,6 C8,6 9.29097611,2.90692587 13.1291577,2.02379213 C13.1291577,2.02519616 15.2513834,1.50570572 12.8698933,5.24884491 Z" id="Sajari-Logo" fill="#383B48" fill-rule="nonzero"></path>
    </g>
</svg>