<?xml version="1.0" encoding="UTF-8"?>
<svg width="120px" height="72px" viewBox="0 0 120 72" version="1.1" xmlns="http://www.w3.org/2000/svg" xmlns:xlink="http://www.w3.org/1999/xlink">
    <!-- Generator: Sketch 59.1 (86144) - https://sketch.com -->
    <title>icons-sprite</title>
    <desc>Created with Sketch.</desc>
    <g id="icons-sprite" stroke="none" stroke-width="1" fill="none" fill-rule="evenodd">
        <rect id="Rectangle" fill-opacity="0.01" fill="#FFFFFF" x="24" y="0" width="24" height="24"></rect>
        <rect id="Rectangle-Copy" fill-opacity="0.01" fill="#FFFFFF" x="48" y="0" width="24" height="24"></rect>
        <g id="Group-2" transform="translate(24.000000, 24.000000)">
            <rect id="Rectangle-Copy-5" fill-opacity="0.01" fill="#FFFFFF" x="48" y="0" width="24" height="24"></rect>
            <rect id="Rectangle-Copy-13" fill-opacity="0.01" fill="#FFFFFF" x="0" y="0" width="24" height="24"></rect>
            <rect id="Rectangle-Copy-7" fill-opacity="0.01" fill="#FFFFFF" x="72" y="0" width="24" height="24"></rect>
            <rect id="Rectangle-Copy-15" fill-opacity="0.01" fill="#FFFFFF" x="24" y="0" width="24" height="24"></rect>
            <polyline id="Path" stroke="#131313" stroke-width="2" stroke-linecap="square" points="16 10 12 14 8 10"></polyline>
            <polyline id="Path-Copy" stroke="#131313" stroke-width="2" stroke-linecap="square" transform="translate(36.000000, 12.000000) scale(1, -1) translate(-36.000000, -12.000000) " points="40 10 36 14 32 10"></polyline>
            <g id="Star---On" transform="translate(79.000000, 7.000000)" fill="#131313" fill-rule="nonzero">
                <path d="M10.7617473,4.06426418 L6.98080731,4.06426418 L5.72814673,0.164483888 C5.6958895,0.0663377749 5.60426132,0 5.50095552,0 C5.39764971,0 5.30602153,0.0663377749 5.27376431,0.164483888 L4.02014713,4.06426418 L0.23920712,4.06426418 C0.136915528,4.06424537 0.0459379827,4.12929106 0.0128618342,4.22609296 C-0.0202143143,4.32289486 0.0119354997,4.43001662 0.0928481514,4.49260384 L3.10899081,6.82754527 L1.85393874,10.6869071 C1.82190714,10.7854585 1.85698367,10.893428 1.94081859,10.954333 C2.0246535,11.015238 2.13817196,11.0152208 2.2219885,10.9542906 L5.50047722,8.57247334 L8.77896594,10.9542906 C8.86278248,11.0152208 8.97630094,11.015238 9.06013585,10.954333 C9.14397077,10.893428 9.1790473,10.7854585 9.1470157,10.6869071 L7.89196363,6.82754527 L10.9071497,4.49260384 C10.9879248,4.43012458 11.0201187,4.32324659 10.9872925,4.22654429 C10.9544664,4.129842 10.8638633,4.06465294 10.7617473,4.06426418 Z" id="Star"></path>
            </g>
            <circle id="Knob---Left" stroke="#1B1B1B" stroke-width="2" cx="60" cy="12" r="7"></circle>
        </g>
        <rect id="Rectangle-Copy-17" fill-opacity="0.01" fill="#FFFFFF" x="0" y="0" width="24" height="24"></rect>
        <rect id="Rectangle-Copy-3" fill-opacity="0.01" fill="#FFFFFF" x="96" y="0" width="24" height="24"></rect>
        <g id="Group-3" transform="translate(0.000000, 48.000000)">
            <rect id="Rectangle-Copy-6" fill-opacity="0.01" fill="#FFFFFF" x="0" y="0" width="24" height="24"></rect>
            <g id="Star---Off" transform="translate(7.000000, 7.000000)" fill-rule="nonzero" stroke="#000000">
                <path d="M9.9979822,4.56426418 L6.61625249,4.56426418 L6.50476315,4.21717581 L5.50086533,1.09181341 L4.38461682,4.56426418 L4.02014713,4.56426418 L1.00220707,4.56426417 L3.69329399,6.64756429 L3.58448033,6.98217294 L2.5778015,10.0777719 L5.50047722,7.95445228 L5.7943582,8.16795638 L8.42315294,10.0777719 L7.3076782,6.64761887 L7.58582753,6.43222174 L9.9979822,4.56426418 Z" id="Star"></path>
            </g>
        </g>
        <rect id="Rectangle-Copy-2" fill-opacity="0.01" fill="#FFFFFF" x="72" y="0" width="24" height="24"></rect>
        <g id="Group" transform="translate(0.000000, 24.000000)">
            <rect id="Rectangle-Copy-4" fill-opacity="0.01" fill="#FFFFFF" x="0" y="0" width="24" height="24"></rect>
            <g id="Search" transform="translate(2.000000, 2.000000)" stroke="#131313" stroke-linecap="square" stroke-width="2">
                <line x1="20" y1="20" x2="14" y2="14" id="Path"></line>
                <circle id="Oval" cx="8" cy="8" r="8"></circle>
            </g>
        </g>
        <g id="Cart-Button" transform="translate(1.000000, 1.000000)" stroke="#131313" stroke-width="2">
            <polyline id="Path" points="0 0 2.5 3.01612903 2.5 12.0645161 1 15.5833333 22 15.5833333"></polyline>
            <polyline id="Path" points="2.75 2.75 20.1666667 2.75 17.1809524 11.9166667 2.75 11.9166667"></polyline>
            <circle id="Oval" stroke-linecap="square" cx="2.75" cy="20.1666667" r="1.83333333"></circle>
            <circle id="Oval" stroke-linecap="square" cx="19.25" cy="20.1666667" r="1.83333333"></circle>
        </g>
        <path d="M95,18 C95.6,18 96,18.4 96,19 C96,19.6 95.6,20 95,20 L73,20 C72.4,20 72,19.6 72,19 C72,18.4 72.4,18 73,18 L95,18 Z M95,11 C95.6,11 96,11.4 96,12 C96,12.6 95.6,13 95,13 L73,13 C72.4,13 72,12.6 72,12 C72,11.4 72.4,11 73,11 L95,11 Z M95,4 C95.6,4 96,4.4 96,5 C96,5.6 95.6,6 95,6 L73,6 C72.4,6 72,5.6 72,5 C72,4.4 72.4,4 73,4 L95,4 Z" id="Combined-Shape" fill="#1B1B1B" fill-rule="nonzero"></path>
        <polyline id="Arrow" stroke="#131313" stroke-width="2" stroke-linecap="square" points="44 8 36 16 28 8"></polyline>
        <polyline id="Arrow-Copy" stroke="#131313" stroke-width="2" stroke-linecap="square" transform="translate(60.000000, 12.000000) scale(1, -1) translate(-60.000000, -12.000000) " points="68 8 60 16 52 8"></polyline>
        <g id="Add-to-Cart-Button" transform="translate(97.000000, 1.000000)">
            <polyline id="Path" stroke="#131313" stroke-width="2" points="0 0 2.5 3.01612903 2.5 12.0645161 1 15.5833333 22 15.5833333"></polyline>
            <polyline id="Path" stroke="#131313" stroke-width="2" points="2.75 2.75 20.1666667 2.75 17.1809524 11.9166667 2.75 11.9166667"></polyline>
            <circle id="Oval" stroke="#131313" stroke-width="2" stroke-linecap="square" cx="2.75" cy="20.1666667" r="1.83333333"></circle>
            <circle id="Oval" stroke="#131313" stroke-width="2" stroke-linecap="square" cx="19.25" cy="20.1666667" r="1.83333333"></circle>
            <rect id="Rectangle" fill="#1B1B1B" x="10.0833333" y="4.58333333" width="1.83333333" height="5.5"></rect>
            <polygon id="Rectangle" fill="#1B1B1B" transform="translate(11.000000, 7.333333) rotate(90.000000) translate(-11.000000, -7.333333) " points="10.0833333 4.58333333 11.9166667 4.58333333 11.9166667 10.0833333 10.0833333 10.0833333"></polygon>
        </g>
    </g>
</svg>